Coordinates
version=1
nRows=29
nColumns=24
inDegrees=yes

Units are S.I. units (second, meters, Newtons, ...)
Angles are in degrees.

endheader
time	pelvis_tilt	pelvis_list	pelvis_rotation	pelvis_tx	pelvis_ty	pelvis_tz	hip_flexion_r	hip_adduction_r	hip_rotation_r	knee_angle_r	ankle_angle_r	subtalar_angle_r	mtp_angle_r	hip_flexion_l	hip_adduction_l	hip_rotation_l	knee_angle_l	ankle_angle_l	subtalar_angle_l	mtp_angle_l	lumbar_extension	lumbar_bending	lumbar_rotation
      1.04400000	     -3.92446995	     -3.22553629	     -3.11543200	     -0.14816354	      0.96951238	      0.32506056	     -9.55897740	      6.57507584	     -5.70188936	    -10.93947945	     14.45097475	      3.48518593	      5.77971899	     25.78064897	     -1.91355351	     -6.01747630	      2.70594427	     -2.17566092	     -1.68555376	     -0.99804049	     -0.11825049	      7.05529147	      6.94888541
      1.04816667	     -3.98075004	     -3.15062332	     -3.17434133	     -0.14234286	      0.96887735	      0.32485734	     -9.57861464	      6.43301250	     -5.64504508	    -11.48323390	     14.48200547	      3.40345997	      5.85087330	     25.77959387	     -1.79871513	     -5.99096838	      2.67966713	     -2.39692166	     -1.98570499	     -0.89539803	     -0.02197625	      6.96736309	      7.02116938
      1.05233333	     -3.99418410	     -3.04220069	     -3.20652502	     -0.13646116	      0.96836053	      0.32464261	     -9.65332290	      6.26096269	     -5.59533993	    -11.99360860	     14.37509373	      3.28020545	      5.86706891	     25.77629796	     -1.64754378	     -6.05860126	      2.49266411	     -2.56640045	     -2.14653171	     -0.86853618	      0.02564157	      6.84028163	      7.00545428
      1.05650000	     -4.08648341	     -2.94073408	     -3.23873819	     -0.13060604	      0.96778429	      0.32441631	     -9.60461220	      6.10300441	     -5.50978485	    -12.58791237	     14.40558709	      3.09907472	      5.95942260	     25.82801643	     -1.50482076	     -5.90848862	      2.31266699	     -2.93762257	     -2.69138733	     -0.72729512	      0.17603783	      6.69986629	      7.04207833
      1.06066667	     -4.14999813	     -2.80920900	     -3.25124377	     -0.12468792	      0.96730938	      0.32417152	     -9.58513962	      5.91526541	     -5.43868441	    -13.17493423	     14.32531909	      2.90382306	      6.05064312	     25.87579339	     -1.32987402	     -5.82571257	      2.01771943	     -3.28962135	     -3.13291198	     -0.58621142	      0.28973357	      6.54046486	      7.03692425
      1.06483333	     -4.20662039	     -2.68251749	     -3.26238760	     -0.11876540	      0.96689306	      0.32392246	     -9.54472280	      5.73137639	     -5.36982341	    -13.81252498	     14.19300099	      2.67593385	      6.18355062	     25.91634859	     -1.16204833	     -5.68434106	      1.66947708	     -3.63660071	     -3.66709286	     -0.38499313	      0.40386048	      6.37486745	      7.01982139
      1.06900000	     -4.29182423	     -2.53863189	     -3.25366309	     -0.11280756	      0.96649686	      0.32364770	     -9.45953719	      5.53660811	     -5.29898412	    -14.47351718	     14.05745969	      2.43328421	      6.31031290	     26.01041135	     -0.97384308	     -5.55548126	      1.23424120	     -4.04603718	     -4.18203001	     -0.20722782	      0.55031834	      6.19847707	      6.99522790
      1.07316667	     -4.35636179	     -2.39002550	     -3.22878969	     -0.10682091	      0.96617828	      0.32335404	     -9.37647144	      5.33693368	     -5.25082836	    -15.16510507	     13.86873729	      2.17354661	      6.43991832	     26.08859655	     -0.77610320	     -5.41090195	      0.74879523	     -4.48136877	     -4.74008185	     -0.04000250	      0.69223444	      5.99759127	      6.95538832
      1.07733333	     -4.43017256	     -2.23482699	     -3.20206317	     -0.10083524	      0.96589807	      0.32304194	     -9.24929158	      5.12885688	     -5.19957274	    -15.91740409	     13.63875285	      1.89456031	      6.60253886	     26.17728696	     -0.57179835	     -5.21777575	      0.22865568	     -4.91742701	     -5.34843945	      0.14732269	      0.83038368	      5.80142859	      6.90801836
      1.08150000	     -4.50658558	     -2.07409789	     -3.15726062	     -0.09481616	      0.96566789	      0.32271463	     -9.10125639	      4.91933101	     -5.15211638	    -16.69643707	     13.36595696	      1.59753866	      6.78811212	     26.27718986	     -0.35801908	     -5.02138644	     -0.33546720	     -5.38206163	     -5.95487966	      0.33502007	      0.98381646	      5.59409661	      6.85390472
      1.08566667	     -4.54947842	     -1.89249924	     -3.09646834	     -0.08874934	      0.96552908	      0.32233906	     -8.96367627	      4.67660673	     -5.16868447	    -17.50722920	     12.93628245	      1.30338374	      9.94277210	     26.34036206	     -0.11480824	     -4.82743265	     -0.91923288	     -5.87335805	     -6.58201360	      3.06386194	      1.09663934	      5.35851716	      6.77647234
      1.08983333	     -4.64626591	     -1.72505276	     -3.04449193	     -0.08271170	      0.96537769	      0.32199375	     -8.72786758	      4.46064439	     -5.11874201	    -18.39736214	     12.59879046	      0.95271928	      9.98283931	     26.47780406	      0.10375228	     -4.64822217	     -1.55888477	     -6.33558510	     -7.12281502	      3.05145498	      1.28408507	      5.13717356	      6.71861959
      1.09400000	     -4.72862874	     -1.54821529	     -2.97511292	     -0.07666583	      0.96529089	      0.32160368	     -8.47814516	      4.23192735	     -5.08964968	    -19.32928863	     12.17834122	      0.61881793	     10.07029751	     26.59376112	      0.34243401	     -4.41448839	     -2.20192311	     -6.78613973	     -7.71486354	      3.04330299	      1.44261368	      4.91433854	      6.64210959
      1.09816667	     -4.80646190	     -1.36712670	     -2.89729270	     -0.07060171	      0.96525774	      0.32119660	     -8.19930445	      3.99453326	     -5.08516047	    -20.31364020	     11.68773045	      0.29851046	     10.18904897	     26.70533951	      0.58778524	     -4.19534859	     -2.85993318	     -7.23250402	     -8.25822070	      3.03613433	      1.60464698	      4.67818475	      6.55840290
      1.10233333	     -4.88594985	     -1.18039756	     -2.81585814	     -0.06453294	      0.96527139	      0.32077560	     -7.88082380	      3.74784521	     -5.08580585	    -21.35705298	     11.14291794	     -0.03547014	     10.34890093	     26.81541089	      0.84028843	     -3.97080927	     -3.52546860	     -7.64616044	     -8.78324377	      3.02754066	      1.77031768	      4.43825054	      6.47482647
      1.10650000	     -4.95396756	     -0.98116928	     -2.72271567	     -0.05845951	      0.96533654	      0.32032340	     -7.54365321	      3.48548654	     -5.09416734	    -22.44556703	     10.56240600	     -0.37971261	     10.63809476	     26.91461933	      1.11350456	     -3.73309518	     -4.20587355	     -8.02194206	     -9.34799055	      3.01251006	      1.91930548	      4.17808896	      6.37978834
      1.11066667	     -5.02857020	     -0.78021247	     -2.64092895	     -0.05238319	      0.96544790	      0.31988175	     -7.15084736	      3.21142549	     -5.11685057	    -23.60714491	      9.84819672	     -0.69141066	     10.85643451	     27.00163578	      1.37900289	     -3.53616956	     -4.85539921	     -8.37433694	     -9.71742972	      2.99609086	      2.08184044	      3.92700446	      6.29655228
      1.11483333	     -5.08600878	     -0.57171106	     -2.54370549	     -0.04631393	      0.96560659	      0.31940599	     -6.74455827	      2.92587540	     -5.15308126	    -24.81443122	      9.10575649	     -1.01912589	     11.12843239	     27.07391197	      1.66207923	     -3.32510438	     -5.52044577	     -8.67910459	    -10.14530280	      2.97162823	      2.22595899	      3.65661943	      6.20273127
      1.11900000	     -5.09766455	     -0.33429062	     -2.43629956	     -0.04022441	      0.96585786	      0.31888306	     -6.35478990	      2.58865846	     -5.24848287	    -26.05476835	      8.22410677	     -1.37264099	     16.87228487	     27.08732754	      1.98415003	     -3.12182858	     -6.17985575	     -8.90352957	    -10.56244300	      2.46249058	      2.30738892	      3.35200769	      6.10686465
      1.12316667	     -5.16801883	     -0.12162333	     -2.34450634	     -0.03418884	      0.96607681	      0.31840291	     -5.85968350	      2.29182582	     -5.26485584	    -27.36333604	      7.34562036	     -1.72093203	     16.92151913	     27.16442383	      2.26838282	     -2.94184436	     -6.84274442	     -9.10335721	    -10.90893849	      2.45097461	      2.45864550	      3.08017570	      6.02124339
      1.12733333	     -5.18600399	      0.11728752	     -2.24820646	     -0.02812979	      0.96639300	      0.31789492	     -5.38579336	      1.94956045	     -5.32448301	    -28.72065113	      6.37970392	     -2.02113833	     16.98645589	     27.15654010	      2.58398168	     -2.77688295	     -7.45558979	     -9.24470879	    -11.16408770	      2.43561012	      2.55493308	      2.78094727	      5.93819683
      1.13150000	     -5.22007797	      0.35411319	     -2.15085879	     -0.02210831	      0.96671465	      0.31737623	     -4.85700926	      1.60546519	     -5.37919642	    -30.12616938	      5.36417415	     -2.32488095	     17.08575743	     27.16318053	      2.89998178	     -2.60752501	     -8.06916087	     -9.33863945	    -11.45646085	      2.41171690	      2.66533539	      2.48313407	      5.85050559
      1.13566667	     -5.26372447	      0.59133256	     -2.05484654	     -0.01613583	      0.96703480	      0.31683323	     -4.27961771	      1.25718851	     -5.41630276	    -31.58227739	      4.32676604	     -2.65511587	     17.40000393	     27.16806267	      3.22430055	     -2.39528671	     -8.66309643	     -9.38012406	    -11.86274304	      2.33757607	      2.77815116	      2.19038325	      5.74118901
      1.13983333	     -5.25804161	      0.84637209	     -1.95251831	     -0.01013383	      0.96745667	      0.31629324	     -3.73554163	      0.87509816	     -5.49588411	    -33.05090133	      3.14314466	     -2.93251622	     17.54869598	     27.09900381	      3.56167455	     -2.27787125	     -9.21738325	     -9.39159662	    -12.01359939	      2.29938237	      2.84125890	      1.87208559	      5.66848673
      1.14400000	     -5.27953991	      1.09193011	     -1.84763350	     -0.00421444	      0.96784161	      0.31573767	     -3.12724944	      0.50667691	     -5.54132084	    -34.55708158	      1.93610333	     -3.24294666	     17.81335175	     27.06353134	      3.89759671	     -2.11713056	     -9.78477824	     -9.35528215	    -12.31309141	      2.22674945	      2.91794653	      1.56922973	      5.57403772
      1.14816667	     -5.25382522	      1.36978170	     -1.75110664	      0.00172953	      0.96831927	      0.31517097	     -2.54270851	      0.08390011	     -5.60983983	    -36.09631914	      0.69528115	     -3.54072667	     17.97083356	     26.92306616	      4.26465490	     -1.98134815	    -10.24807049	     -9.24431579	    -12.45689551	      2.18107683	      2.95514912	      1.22847494	      5.49150456
      1.15233333	     -5.24875722	      1.63219721	     -1.64979241	      0.00761611	      0.96877515	      0.31460201	     -1.91254112	     -0.31942531	     -5.66105901	    -37.64933653	     -0.60300999	     -3.85700356	     18.14126359	     26.80546757	      4.62087036	     -1.84436815	    -10.71510007	     -9.11200939	    -12.67006582	      2.12520881	      3.00822540	      0.91196792	      5.40154731
      1.15650000	     -5.24489953	      1.89906865	     -1.54879435	      0.01345194	      0.96924290	      0.31402702	     -1.25668428	     -0.73040283	     -5.69751851	    -39.21752346	     -1.92320014	     -4.18021344	     18.30423457	     26.66960107	      4.98384975	     -1.70551882	    -11.14297261	     -8.95037158	    -12.87468920	      2.06436899	      3.05414997	      0.58924237	      5.30964512
      1.16066667	     -5.24021134	      2.15256260	     -1.44155294	      0.01922027	      0.96971191	      0.31344744	     -0.58382344	     -1.12164552	     -5.70987924	    -40.78619671	     -3.27349962	     -4.54488587	     18.52818389	     26.52911690	      5.33914768	     -1.55786221	    -11.56405410	     -8.77169195	    -13.13348456	      1.96678528	      3.08070103	      0.27695816	      5.20983456
